# xmcd
#
# Track frame offsets: 
#        150
#        17969
#        39483
#
# Disc length: 838 seconds
#
# Revision: 0
# Processed by: cddbd v1.5.2PL0 Copyright (c) Steve Scherf et al.
# Submitted via: ExactAudioCopyFreeDBPlugin 1.0
#
DISCID=1d034403
DTITLE=WEAVER / 『山田くんと7人の魔女』OP:くちづけDiamond
DYEAR=2015
DGENRE=Anime
TTITLE0=くちづけDiamond
TTITLE1=Beloved
TTITLE2=Inception
EXTD=
EXTT0=
EXTT1=
EXTT2=
PLAYORDER=
